<?xml version="1.0" encoding="UTF-8" standalone="no"?>
<!-- Created with Inkscape (http://www.inkscape.org/) -->

<svg
   width="39mm"
   height="39mm"
   viewBox="0 0 39 39"
   version="1.1"
   id="svg8"
   inkscape:version="1.2.2 (b0a8486541, 2022-12-01)"
   sodipodi:docname="chatbot_logo_grey.svg"
   xmlns:inkscape="http://www.inkscape.org/namespaces/inkscape"
   xmlns:sodipodi="http://sodipodi.sourceforge.net/DTD/sodipodi-0.dtd"
   xmlns="http://www.w3.org/2000/svg"
   xmlns:svg="http://www.w3.org/2000/svg"
   xmlns:rdf="http://www.w3.org/1999/02/22-rdf-syntax-ns#"
   xmlns:cc="http://creativecommons.org/ns#"
   xmlns:dc="http://purl.org/dc/elements/1.1/">
  <defs
     id="defs2">
    <filter
       inkscape:label="Brilliance"
       inkscape:menu="Color"
       inkscape:menu-tooltip="Oversaturate colors which can be fluorescent in real world"
       style="color-interpolation-filters:sRGB;"
       id="filter665"
       x="0"
       y="0"
       width="1"
       height="1">
      <feColorMatrix
         type="hueRotate"
         values="0"
         id="feColorMatrix659" />
      <feColorMatrix
         type="saturate"
         values="1"
         id="feColorMatrix661" />
      <feColorMatrix
         type="matrix"
         values="2 -1 0 0 0 0 2 -1 0 0 -1 0 2 0 0 0 0 0 1 0 "
         id="feColorMatrix663"
         result="fbSourceGraphic" />
      <feColorMatrix
         result="fbSourceGraphicAlpha"
         in="fbSourceGraphic"
         values="0 0 0 -1 0 0 0 0 -1 0 0 0 0 -1 0 0 0 0 1 0"
         id="feColorMatrix667" />
      <feColorMatrix
         id="feColorMatrix669"
         values="2.2 -0.6 -0.6 0 0.1 -0.6 2.2 -0.6 0 0.1 -0.6 -0.6 2.2 0 0.1 0 0 0 1 0 "
         in="fbSourceGraphic" />
    </filter>
    <filter
       inkscape:menu="Fill and Transparency"
       inkscape:menu-tooltip="Create a semi transparent posterized image"
       style="color-interpolation-filters:sRGB"
       inkscape:label="Posterized Light Eraser"
       id="filter1725"
       x="-0.0027903183"
       y="-0.0018293268"
       width="1.0055806"
       height="1.0036587">
      <feGaussianBlur
         stdDeviation="0.01"
         result="result1"
         in="SourceGraphic"
         id="feGaussianBlur1707" />
      <feColorMatrix
         values="1 0 0 0 0 0 1 0 0 0 0 0 1 0 0 0 0 0 50 0 "
         result="fbSourceGraphic"
         in="result1"
         id="feColorMatrix1709" />
      <feColorMatrix
         type="saturate"
         result="result8"
         values="1"
         id="feColorMatrix1711" />
      <feComponentTransfer
         in="result8"
         result="result7"
         id="feComponentTransfer1719">
        <feFuncR
           tableValues="0 0.2 0.4 0.6 0.8 1 1"
           type="discrete"
           id="feFuncR1713" />
        <feFuncG
           tableValues="0 0.2 0.4 0.6 0.8 1 1"
           type="discrete"
           id="feFuncG1715" />
        <feFuncB
           tableValues="0 0.2 0.4 0.6 0.8 1 1"
           type="discrete"
           id="feFuncB1717" />
      </feComponentTransfer>
      <feColorMatrix
         values="1 0 0 0 0 0 1 0 0 0 0 0 1 0 0 -0.21 -0.72 -0.07 1 0 "
         result="result2"
         in="result7"
         id="feColorMatrix1721" />
      <feComposite
         in2="SourceGraphic"
         operator="in"
         result="result9"
         in="result2"
         id="feComposite1723" />
    </filter>
  </defs>
  <sodipodi:namedview
     id="base"
     pagecolor="#ffffff"
     bordercolor="#666666"
     borderopacity="1.0"
     inkscape:pageopacity="0.0"
     inkscape:pageshadow="2"
     inkscape:zoom="4.04"
     inkscape:cx="31.064356"
     inkscape:cy="77.10396"
     inkscape:document-units="mm"
     inkscape:current-layer="g2459"
     showgrid="false"
     showguides="true"
     inkscape:guide-bbox="true"
     inkscape:window-width="1920"
     inkscape:window-height="1008"
     inkscape:window-x="1920"
     inkscape:window-y="0"
     inkscape:window-maximized="1"
     inkscape:showpageshadow="2"
     inkscape:pagecheckerboard="0"
     inkscape:deskcolor="#d1d1d1">
    <sodipodi:guide
       position="19.627586,22.04861"
       orientation="1,0"
       id="guide1376"
       inkscape:locked="false" />
    <inkscape:grid
       type="xygrid"
       id="grid1378" />
  </sodipodi:namedview>
  <metadata
     id="metadata5">
    <rdf:RDF>
      <cc:Work
         rdf:about="">
        <dc:format>image/svg+xml</dc:format>
        <dc:type
           rdf:resource="http://purl.org/dc/dcmitype/StillImage" />
        <dc:title />
      </cc:Work>
    </rdf:RDF>
  </metadata>
  <g
     inkscape:label="Ebene 1"
     inkscape:groupmode="layer"
     id="layer1"
     transform="translate(0,-258)">
    <g
       id="g2454"
       transform="translate(0,2.379655)">
      <g
         id="g2459"
         transform="translate(1.1340416,-0.52792)"
         style="fill:#b3b3b3">
        <path
           id="rect1768"
           style="fill:#f9f9f9;fill-opacity:1;stroke-width:0.19334;stroke-linecap:square;stroke-linejoin:round;paint-order:markers fill stroke"
           d="m 12.79036,262.1609 -0.03592,0.0503 a 1.9957454,8.4067561 34.346988 0 1 0.01992,0.0164 8.4067561,1.9957454 55.653012 0 1 0.03628,-0.0383 z m 0.03664,1.97188 a 1.9957454,8.4067561 34.346988 0 1 -3.5911733,6.73399 1.9957454,8.4067561 34.346988 0 1 -4.884384,5.06594 8.4067561,1.9957454 55.653012 0 1 4.795109,5.02061 8.4067561,1.9957454 55.653012 0 1 3.6911163,7.12647 1.9957454,8.4067561 34.346988 0 1 3.696446,-7.16184 1.9957454,8.4067561 34.346988 0 1 4.809699,-5.02957 8.4067561,1.9957454 55.653012 0 1 -4.950187,-5.1018 8.4067561,1.9957454 55.653012 0 1 -3.566626,-6.6538 z" />
        <path
           id="rect1768-6"
           style="fill:#f2f2f2;fill-opacity:1;stroke-width:0.0978645;stroke-linecap:square;stroke-linejoin:round;paint-order:markers fill stroke"
           d="m 22.403108,277.90097 -0.01818,0.0255 a 1.0102029,4.2553171 34.346988 0 1 0.01008,0.008 4.2553171,1.0102029 55.653012 0 1 0.01836,-0.0194 z m 0.01855,0.99812 a 1.0102029,4.2553171 34.346988 0 1 -1.817774,3.4086 1.0102029,4.2553171 34.346988 0 1 -2.472369,2.56427 4.2553171,1.0102029 55.653012 0 1 2.42718,2.54133 4.2553171,1.0102029 55.653012 0 1 1.868363,3.60726 1.0102029,4.2553171 34.346988 0 1 1.871061,-3.62517 1.0102029,4.2553171 34.346988 0 1 2.434565,-2.54586 4.2553171,1.0102029 55.653012 0 1 -2.505677,-2.58242 4.2553171,1.0102029 55.653012 0 1 -1.805349,-3.36801 z" />
        <path
           id="rect1768-6-2"
           style="fill:#ffffff;fill-opacity:1;stroke-width:0.136623;stroke-linecap:square;stroke-linejoin:round;paint-order:markers fill stroke"
           d="m 26.336209,260.27598 -0.02538,0.0356 a 1.4102836,5.9405928 34.346988 0 1 0.01407,0.0112 5.9405928,1.4102836 55.653012 0 1 0.02563,-0.0271 z m 0.0259,1.39342 a 1.4102836,5.9405928 34.346988 0 1 -2.537685,4.75854 1.4102836,5.9405928 34.346988 0 1 -3.451526,3.57982 5.9405928,1.4102836 55.653012 0 1 3.38844,3.5478 5.9405928,1.4102836 55.653012 0 1 2.60831,5.03588 1.4102836,5.9405928 34.346988 0 1 2.612076,-5.06088 1.4102836,5.9405928 34.346988 0 1 3.39875,-3.55412 5.9405928,1.4102836 55.653012 0 1 -3.498025,-3.60517 5.9405928,1.4102836 55.653012 0 1 -2.52034,-4.70187 z" />
      </g>
    </g>
  </g>
</svg>
